<svg width="204" height="54" viewBox="0 0 204 54" fill="none" xmlns="http://www.w3.org/2000/svg">
<path d="M15.8667 4.53333V1.13333C15.8667 0.832755 15.9861 0.544487 16.1986 0.331946C16.4112 0.119404 16.6994 0 17 0C17.3006 0 17.5888 0.119404 17.8014 0.331946C18.0139 0.544487 18.1333 0.832755 18.1333 1.13333V4.53333C18.1333 4.83391 18.0139 5.12218 17.8014 5.33472C17.5888 5.54726 17.3006 5.66667 17 5.66667C16.6994 5.66667 16.4112 5.54726 16.1986 5.33472C15.9861 5.12218 15.8667 4.83391 15.8667 4.53333ZM26.0667 17C26.0667 18.7932 25.5349 20.5462 24.5387 22.0372C23.5424 23.5282 22.1264 24.6903 20.4697 25.3765C18.8129 26.0627 16.9899 26.2423 15.2312 25.8925C13.4724 25.5426 11.8569 24.6791 10.5889 23.4111C9.3209 22.1431 8.45739 20.5276 8.10755 18.7688C7.75771 17.0101 7.93726 15.1871 8.62349 13.5303C9.30973 11.8736 10.4718 10.4576 11.9628 9.46134C13.4538 8.46508 15.2068 7.93333 17 7.93333C19.4038 7.93596 21.7084 8.89204 23.4082 10.5918C25.108 12.2916 26.064 14.5962 26.0667 17ZM23.8 17C23.8 15.6551 23.4012 14.3404 22.654 13.2221C21.9068 12.1039 20.8448 11.2323 19.6022 10.7176C18.3597 10.2029 16.9925 10.0683 15.6734 10.3307C14.3543 10.593 13.1427 11.2407 12.1917 12.1917C11.2407 13.1427 10.593 14.3543 10.3307 15.6734C10.0683 16.9925 10.2029 18.3597 10.7176 19.6022C11.2323 20.8448 12.1039 21.9068 13.2221 22.654C14.3404 23.4012 15.6551 23.8 17 23.8C18.8029 23.7981 20.5314 23.0811 21.8063 21.8063C23.0811 20.5314 23.7981 18.8029 23.8 17ZM7.1315 8.73517C7.34416 8.94783 7.63259 9.0673 7.93333 9.0673C8.23408 9.0673 8.52251 8.94783 8.73517 8.73517C8.94783 8.52251 9.0673 8.23408 9.0673 7.93333C9.0673 7.63259 8.94783 7.34416 8.73517 7.1315L6.4685 4.86483C6.25584 4.65217 5.96741 4.5327 5.66667 4.5327C5.36592 4.5327 5.07749 4.65217 4.86483 4.86483C4.65217 5.07749 4.5327 5.36592 4.5327 5.66667C4.5327 5.96741 4.65217 6.25584 4.86483 6.4685L7.1315 8.73517ZM7.1315 25.2648L4.86483 27.5315C4.65217 27.7442 4.5327 28.0326 4.5327 28.3333C4.5327 28.6341 4.65217 28.9225 4.86483 29.1352C5.07749 29.3478 5.36592 29.4673 5.66667 29.4673C5.96741 29.4673 6.25584 29.3478 6.4685 29.1352L8.73517 26.8685C8.84047 26.7632 8.92399 26.6382 8.98098 26.5006C9.03797 26.363 9.0673 26.2156 9.0673 26.0667C9.0673 25.9178 9.03797 25.7703 8.98098 25.6327C8.92399 25.4951 8.84047 25.3701 8.73517 25.2648C8.62987 25.1595 8.50486 25.076 8.36728 25.019C8.2297 24.962 8.08225 24.9327 7.93333 24.9327C7.78442 24.9327 7.63696 24.962 7.49938 25.019C7.36181 25.076 7.2368 25.1595 7.1315 25.2648ZM26.0667 9.06667C26.2155 9.06678 26.363 9.03757 26.5006 8.98069C26.6381 8.92381 26.7632 8.84038 26.8685 8.73517L29.1352 6.4685C29.3478 6.25584 29.4673 5.96741 29.4673 5.66667C29.4673 5.36592 29.3478 5.07749 29.1352 4.86483C28.9225 4.65217 28.6341 4.5327 28.3333 4.5327C28.0326 4.5327 27.7442 4.65217 27.5315 4.86483L25.2648 7.1315C25.1062 7.29 24.9981 7.49202 24.9543 7.71199C24.9105 7.93195 24.9329 8.15996 25.0188 8.36716C25.1046 8.57436 25.25 8.75143 25.4366 8.87595C25.6231 9.00047 25.8424 9.06684 26.0667 9.06667ZM26.8685 25.2648C26.6558 25.0522 26.3674 24.9327 26.0667 24.9327C25.7659 24.9327 25.4775 25.0522 25.2648 25.2648C25.0522 25.4775 24.9327 25.7659 24.9327 26.0667C24.9327 26.3674 25.0522 26.6558 25.2648 26.8685L27.5315 29.1352C27.6368 29.2405 27.7618 29.324 27.8994 29.381C28.037 29.438 28.1844 29.4673 28.3333 29.4673C28.4822 29.4673 28.6297 29.438 28.7673 29.381C28.9049 29.324 29.0299 29.2405 29.1352 29.1352C29.2405 29.0299 29.324 28.9049 29.381 28.7673C29.438 28.6297 29.4673 28.4822 29.4673 28.3333C29.4673 28.1844 29.438 28.037 29.381 27.8994C29.324 27.7618 29.2405 27.6368 29.1352 27.5315L26.8685 25.2648ZM5.66667 17C5.66667 16.6994 5.54726 16.4112 5.33472 16.1986C5.12218 15.9861 4.83391 15.8667 4.53333 15.8667H1.13333C0.832755 15.8667 0.544487 15.9861 0.331946 16.1986C0.119404 16.4112 0 16.6994 0 17C0 17.3006 0.119404 17.5888 0.331946 17.8014C0.544487 18.0139 0.832755 18.1333 1.13333 18.1333H4.53333C4.83391 18.1333 5.12218 18.0139 5.33472 17.8014C5.54726 17.5888 5.66667 17.3006 5.66667 17ZM17 28.3333C16.6994 28.3333 16.4112 28.4527 16.1986 28.6653C15.9861 28.8778 15.8667 29.1661 15.8667 29.4667V32.8667C15.8667 33.1672 15.9861 33.4555 16.1986 33.6681C16.4112 33.8806 16.6994 34 17 34C17.3006 34 17.5888 33.8806 17.8014 33.6681C18.0139 33.4555 18.1333 33.1672 18.1333 32.8667V29.4667C18.1333 29.1661 18.0139 28.8778 17.8014 28.6653C17.5888 28.4527 17.3006 28.3333 17 28.3333ZM32.8667 15.8667H29.4667C29.1661 15.8667 28.8778 15.9861 28.6653 16.1986C28.4527 16.4112 28.3333 16.6994 28.3333 17C28.3333 17.3006 28.4527 17.5888 28.6653 17.8014C28.8778 18.0139 29.1661 18.1333 29.4667 18.1333H32.8667C33.1672 18.1333 33.4555 18.0139 33.6681 17.8014C33.8806 17.5888 34 17.3006 34 17C34 16.6994 33.8806 16.4112 33.6681 16.1986C33.4555 15.9861 33.1672 15.8667 32.8667 15.8667Z" fill="#222222"/>
<path d="M69.0814 26.2569C68.1773 21.6752 65.7105 17.5494 62.1024 14.5844C58.4943 11.6193 53.9687 9.99894 49.2986 10C41.52 10 34.7642 14.4141 31.3998 20.8738C27.4438 21.3013 23.7854 23.1757 21.1275 26.1367C18.4695 29.0977 16.9995 32.9365 17 36.9155C17 45.8245 24.2403 53.0647 33.1493 53.0647H68.1394C75.568 53.0647 81.5971 47.0357 81.5971 39.607C81.5971 32.5013 76.0794 26.7414 69.0814 26.2569Z" fill="#D67742"/>
<path d="M101.992 39L97.4141 23H101.109L103.758 34.1172H103.891L106.813 23H109.977L112.891 34.1406H113.031L115.68 23H119.375L114.797 39H111.5L108.453 28.5391H108.328L105.289 39H101.992ZM125.303 39.2344C124.068 39.2344 123.006 38.9844 122.115 38.4844C121.23 37.9792 120.548 37.2656 120.068 36.3437C119.589 35.4167 119.35 34.3203 119.35 33.0547C119.35 31.8203 119.589 30.737 120.068 29.8047C120.548 28.8724 121.222 28.1458 122.092 27.625C122.967 27.1042 123.993 26.8438 125.17 26.8438C125.962 26.8438 126.699 26.9714 127.381 27.2266C128.068 27.4766 128.667 27.8542 129.178 28.3594C129.693 28.8646 130.094 29.5 130.381 30.2656C130.667 31.026 130.811 31.9167 130.811 32.9375V33.8516H120.678V31.7891H127.678C127.678 31.3099 127.574 30.8854 127.365 30.5156C127.157 30.1458 126.868 29.8568 126.498 29.6484C126.133 29.4349 125.709 29.3281 125.225 29.3281C124.719 29.3281 124.271 29.4453 123.881 29.6797C123.495 29.9089 123.193 30.2187 122.975 30.6094C122.756 30.9948 122.644 31.4245 122.639 31.8984V33.8594C122.639 34.4531 122.748 34.9661 122.967 35.3984C123.191 35.8307 123.506 36.1641 123.912 36.3984C124.318 36.6328 124.8 36.75 125.357 36.75C125.727 36.75 126.066 36.6979 126.373 36.5938C126.68 36.4896 126.943 36.3333 127.162 36.125C127.381 35.9167 127.548 35.6615 127.662 35.3594L130.74 35.5625C130.584 36.3021 130.264 36.9479 129.779 37.5C129.3 38.0469 128.68 38.474 127.92 38.7813C127.165 39.0833 126.292 39.2344 125.303 39.2344ZM136.404 39.2266C135.639 39.2266 134.956 39.0938 134.357 38.8281C133.758 38.5573 133.285 38.1589 132.936 37.6328C132.592 37.1016 132.42 36.4401 132.42 35.6484C132.42 34.9818 132.542 34.4219 132.787 33.9687C133.032 33.5156 133.365 33.151 133.787 32.875C134.209 32.599 134.688 32.3906 135.225 32.25C135.766 32.1094 136.334 32.0104 136.928 31.9531C137.626 31.8802 138.188 31.8125 138.615 31.75C139.042 31.6823 139.352 31.5833 139.545 31.4531C139.738 31.3229 139.834 31.1302 139.834 30.875V30.8281C139.834 30.3333 139.678 29.9505 139.365 29.6797C139.058 29.4089 138.62 29.2734 138.053 29.2734C137.454 29.2734 136.977 29.4062 136.623 29.6719C136.269 29.9323 136.035 30.2604 135.92 30.6562L132.842 30.4062C132.998 29.6771 133.305 29.0469 133.764 28.5156C134.222 27.9792 134.813 27.5677 135.537 27.2812C136.266 26.9896 137.11 26.8438 138.068 26.8438C138.735 26.8438 139.373 26.9219 139.982 27.0781C140.597 27.2344 141.141 27.4766 141.615 27.8047C142.094 28.1328 142.472 28.5547 142.748 29.0703C143.024 29.5807 143.162 30.1927 143.162 30.9062V39H140.006V37.3359H139.912C139.719 37.7109 139.462 38.0417 139.139 38.3281C138.816 38.6094 138.428 38.8307 137.975 38.9922C137.521 39.1484 136.998 39.2266 136.404 39.2266ZM137.357 36.9297C137.847 36.9297 138.279 36.8333 138.654 36.6406C139.029 36.4427 139.324 36.1771 139.537 35.8438C139.751 35.5104 139.857 35.1328 139.857 34.7109V33.4375C139.753 33.5052 139.61 33.5677 139.428 33.625C139.251 33.6771 139.05 33.7266 138.826 33.7734C138.602 33.8151 138.378 33.8542 138.154 33.8906C137.93 33.9219 137.727 33.9505 137.545 33.9766C137.154 34.0339 136.813 34.125 136.521 34.25C136.23 34.375 136.003 34.5443 135.842 34.7578C135.68 34.9661 135.6 35.2266 135.6 35.5391C135.6 35.9922 135.764 36.3385 136.092 36.5781C136.425 36.8125 136.847 36.9297 137.357 36.9297ZM152.127 27V29.5H144.9V27H152.127ZM146.541 24.125H149.869V35.3125C149.869 35.6198 149.916 35.8594 150.01 36.0312C150.104 36.1979 150.234 36.3151 150.4 36.3828C150.572 36.4505 150.77 36.4844 150.994 36.4844C151.15 36.4844 151.307 36.4714 151.463 36.4453C151.619 36.4141 151.739 36.3906 151.822 36.375L152.346 38.8516C152.179 38.9036 151.945 38.9635 151.643 39.0313C151.34 39.1042 150.973 39.1484 150.541 39.1641C149.739 39.1953 149.036 39.0885 148.432 38.8437C147.833 38.599 147.367 38.2187 147.033 37.7031C146.7 37.1875 146.536 36.5365 146.541 35.75V24.125ZM157.881 32.0625V39H154.553V23H157.787V29.1172H157.928C158.199 28.4089 158.636 27.8542 159.24 27.4531C159.844 27.0469 160.602 26.8438 161.514 26.8438C162.347 26.8438 163.074 27.026 163.693 27.3906C164.318 27.75 164.803 28.2682 165.146 28.9453C165.495 29.6172 165.667 30.4219 165.662 31.3594V39H162.334V31.9531C162.339 31.2135 162.152 30.638 161.771 30.2266C161.396 29.8151 160.87 29.6094 160.193 29.6094C159.74 29.6094 159.339 29.7057 158.99 29.8984C158.646 30.0911 158.376 30.3724 158.178 30.7422C157.985 31.1068 157.886 31.5469 157.881 32.0625ZM173.75 39.2344C172.516 39.2344 171.453 38.9844 170.562 38.4844C169.677 37.9792 168.995 37.2656 168.516 36.3437C168.036 35.4167 167.797 34.3203 167.797 33.0547C167.797 31.8203 168.036 30.737 168.516 29.8047C168.995 28.8724 169.669 28.1458 170.539 27.625C171.414 27.1042 172.44 26.8438 173.617 26.8438C174.409 26.8438 175.146 26.9714 175.828 27.2266C176.516 27.4766 177.115 27.8542 177.625 28.3594C178.141 28.8646 178.542 29.5 178.828 30.2656C179.115 31.026 179.258 31.9167 179.258 32.9375V33.8516H169.125V31.7891H176.125C176.125 31.3099 176.021 30.8854 175.813 30.5156C175.604 30.1458 175.315 29.8568 174.945 29.6484C174.581 29.4349 174.156 29.3281 173.672 29.3281C173.167 29.3281 172.719 29.4453 172.328 29.6797C171.943 29.9089 171.641 30.2187 171.422 30.6094C171.203 30.9948 171.091 31.4245 171.086 31.8984V33.8594C171.086 34.4531 171.195 34.9661 171.414 35.3984C171.638 35.8307 171.953 36.1641 172.359 36.3984C172.766 36.6328 173.247 36.75 173.805 36.75C174.174 36.75 174.513 36.6979 174.82 36.5938C175.128 36.4896 175.391 36.3333 175.609 36.125C175.828 35.9167 175.995 35.6615 176.109 35.3594L179.188 35.5625C179.031 36.3021 178.711 36.9479 178.227 37.5C177.747 38.0469 177.128 38.474 176.367 38.7813C175.612 39.0833 174.74 39.2344 173.75 39.2344ZM181.43 39V27H184.656V29.0937H184.781C185 28.349 185.367 27.7865 185.883 27.4063C186.398 27.0208 186.992 26.8281 187.664 26.8281C187.831 26.8281 188.01 26.8385 188.203 26.8594C188.396 26.8802 188.565 26.9089 188.711 26.9453V29.8984C188.555 29.8516 188.339 29.8099 188.063 29.7734C187.786 29.737 187.534 29.7188 187.305 29.7188C186.815 29.7188 186.378 29.8255 185.992 30.0391C185.612 30.2474 185.31 30.5391 185.086 30.9141C184.867 31.2891 184.758 31.7214 184.758 32.2109V39H181.43Z" fill="#343434"/>
</svg>
