<svg width="15" height="25" viewBox="0 0 15 25" fill="none" xmlns="http://www.w3.org/2000/svg">
<path d="M7.61782 15.7848V6.86631H4.36755V15.7832C3.22752 16.3798 2.43852 17.5698 2.43852 18.9549C2.45253 19.8966 2.83322 20.7949 3.49837 21.4559C4.16353 22.1168 5.05976 22.4874 5.99351 22.4875C6.92725 22.4876 7.82357 22.1173 8.48888 21.4564C9.15418 20.7956 9.53508 19.8974 9.5493 18.9557C9.5493 17.5706 8.76111 16.3806 7.61864 15.7856L7.61782 15.7848ZM10.0555 4.09782C10.0555 1.8391 8.23213 0 5.99269 0C3.75325 0 1.92985 1.83992 1.92985 4.09782V14.5284C1.3211 15.0905 0.835117 15.7743 0.502853 16.5363C0.170589 17.2982 -0.000665634 18.1217 1.94425e-06 18.9541C1.94425e-06 22.2864 2.6896 25 5.9935 25C9.2974 25 11.9862 22.2872 11.9862 18.9541C11.9862 17.2445 11.2728 15.6512 10.0563 14.5268V4.09946L10.0555 4.09782ZM10.3602 18.9565C10.3587 20.1242 9.89802 21.2435 9.0792 22.0689C8.26038 22.8943 7.15035 23.3584 5.99269 23.3592C4.83523 23.3577 3.72562 22.8933 2.90717 22.0678C2.08873 21.2423 1.62827 20.1231 1.62676 18.9557C1.62676 17.4846 2.35482 16.1339 3.55742 15.3185V4.09946C3.55742 2.74472 4.6487 1.64077 5.99269 1.64077C7.33668 1.64077 8.43039 2.7439 8.43039 4.09946V15.3193C9.02402 15.7183 9.51078 16.259 9.84744 16.8934C10.1841 17.5278 10.3602 18.237 10.3602 18.9565ZM11.3434 6.86631L15 8.99554V4.73872L11.3434 6.86631Z" fill="#B5C5CD"/>
</svg>
