<svg width="28" height="21" viewBox="0 0 28 21" fill="none" xmlns="http://www.w3.org/2000/svg">
<path d="M13.3805 0.26822C13.4618 0.183198 13.5583 0.115742 13.6646 0.0697169C13.7709 0.0236913 13.8849 0 14 0C14.1151 0 14.2291 0.0236913 14.3354 0.0697169C14.4417 0.115742 14.5382 0.183198 14.6195 0.26822L17.2445 3.00714C17.3259 3.09202 17.3904 3.19279 17.4344 3.3037C17.4784 3.41461 17.5011 3.53348 17.5011 3.65352C17.5011 3.77357 17.4784 3.89244 17.4344 4.00334C17.3904 4.11425 17.3259 4.21502 17.2445 4.29991C17.1631 4.38479 17.0666 4.45213 16.9603 4.49806C16.854 4.544 16.7401 4.56765 16.625 4.56765C16.5099 4.56765 16.396 4.544 16.2897 4.49806C16.1834 4.45213 16.0869 4.38479 16.0055 4.29991L14.875 3.11852V6.39244C14.875 6.63457 14.7828 6.86679 14.6187 7.03801C14.4546 7.20922 14.2321 7.30541 14 7.30541C13.7679 7.30541 13.5454 7.20922 13.3813 7.03801C13.2172 6.86679 13.125 6.63457 13.125 6.39244V3.11852L11.9945 4.29991C11.9131 4.38479 11.8166 4.45213 11.7103 4.49806C11.604 4.544 11.4901 4.56765 11.375 4.56765C11.2599 4.56765 11.146 4.544 11.0397 4.49806C10.9334 4.45213 10.8369 4.38479 10.7555 4.29991C10.6741 4.21502 10.6096 4.11425 10.5656 4.00334C10.5216 3.89244 10.4989 3.77357 10.4989 3.65352C10.4989 3.53348 10.5216 3.41461 10.5656 3.3037C10.6096 3.19279 10.6741 3.09202 10.7555 3.00714L13.3805 0.26822ZM4.10025 6.10577C4.26434 5.93461 4.48686 5.83846 4.71887 5.83846C4.95089 5.83846 5.17341 5.93461 5.3375 6.10577L7.812 8.68765C7.97139 8.85984 8.05958 9.09046 8.05759 9.32984C8.0556 9.56922 7.96357 9.7982 7.80134 9.96747C7.63911 10.1367 7.41965 10.2328 7.19023 10.2348C6.9608 10.2369 6.73978 10.1449 6.57475 9.9786L4.10025 7.39671C3.93621 7.2255 3.84406 6.99333 3.84406 6.75124C3.84406 6.50915 3.93621 6.27697 4.10025 6.10577ZM23.8997 6.10577C24.0638 6.27697 24.1559 6.50915 24.1559 6.75124C24.1559 6.99333 24.0638 7.2255 23.8997 7.39671L21.4253 9.9786C21.3445 10.0658 21.248 10.1353 21.1412 10.1832C21.0345 10.231 20.9197 10.2562 20.8035 10.2573C20.6873 10.2583 20.5721 10.2352 20.4645 10.1893C20.357 10.1434 20.2593 10.0756 20.1772 9.98991C20.095 9.90419 20.03 9.80225 19.986 9.69005C19.942 9.57785 19.9199 9.45763 19.9209 9.33641C19.9219 9.21519 19.9461 9.09538 19.9919 8.984C20.0378 8.87261 20.1044 8.77187 20.188 8.68765L22.6625 6.10577C22.8266 5.93461 23.0491 5.83846 23.2811 5.83846C23.5131 5.83846 23.7357 5.93461 23.8997 6.10577ZM20.4907 19.1741C20.9198 18.0654 21.0815 16.8638 20.9616 15.6748C20.8416 14.4857 20.4438 13.3456 19.8029 12.3545C19.1621 11.3633 18.2978 10.5515 17.286 9.9902C16.2742 9.42894 15.1459 9.13543 14 9.13543C12.8541 9.13543 11.7258 9.42894 10.714 9.9902C9.70219 10.5515 8.83794 11.3633 8.19708 12.3545C7.55623 13.3456 7.15837 14.4857 7.03844 15.6748C6.91852 16.8638 7.08018 18.0654 7.50925 19.1741H0.875C0.642936 19.1741 0.420376 19.2702 0.256282 19.4415C0.0921872 19.6127 0 19.8449 0 20.087C0 20.3292 0.0921872 20.5614 0.256282 20.7326C0.420376 20.9038 0.642936 21 0.875 21H27.125C27.3571 21 27.5796 20.9038 27.7437 20.7326C27.9078 20.5614 28 20.3292 28 20.087C28 19.8449 27.9078 19.6127 27.7437 19.4415C27.5796 19.2702 27.3571 19.1741 27.125 19.1741H20.4925H20.4907ZM0 16.4351C0 16.193 0.0921872 15.9608 0.256282 15.7896C0.420376 15.6184 0.642936 15.5222 0.875 15.5222H4.375C4.60706 15.5222 4.82962 15.6184 4.99372 15.7896C5.15781 15.9608 5.25 16.193 5.25 16.4351C5.25 16.6773 5.15781 16.9095 4.99372 17.0807C4.82962 17.2519 4.60706 17.3481 4.375 17.3481H0.875C0.642936 17.3481 0.420376 17.2519 0.256282 17.0807C0.0921872 16.9095 0 16.6773 0 16.4351ZM22.75 16.4351C22.75 16.193 22.8422 15.9608 23.0063 15.7896C23.1704 15.6184 23.3929 15.5222 23.625 15.5222H27.125C27.3571 15.5222 27.5796 15.6184 27.7437 15.7896C27.9078 15.9608 28 16.193 28 16.4351C28 16.6773 27.9078 16.9095 27.7437 17.0807C27.5796 17.2519 27.3571 17.3481 27.125 17.3481H23.625C23.3929 17.3481 23.1704 17.2519 23.0063 17.0807C22.8422 16.9095 22.75 16.6773 22.75 16.4351Z" fill="#B5C5CD"/>
</svg>
