<svg width="26" height="19" viewBox="0 0 26 19" fill="none" xmlns="http://www.w3.org/2000/svg">
<path d="M16.4735 0C14.7019 0.000276282 12.9653 0.491906 11.4582 1.41985C9.95102 2.3478 8.73281 3.67544 7.93991 5.25415C7.2809 6.56296 6.93635 8.00654 6.93347 9.47085C6.93687 9.69335 6.85584 9.90892 6.7066 10.0744C6.55736 10.24 6.35091 10.3433 6.12854 10.3636C6.00964 10.3721 5.89026 10.356 5.77788 10.3164C5.66549 10.2768 5.56251 10.2146 5.47538 10.1335C5.38824 10.0525 5.31882 9.95436 5.27145 9.84536C5.22409 9.73635 5.1998 9.61878 5.2001 9.5C5.19919 8.29203 5.39455 7.09188 5.77861 5.94614C5.80392 5.87267 5.80887 5.79377 5.79295 5.71773C5.77702 5.6417 5.74081 5.57135 5.68813 5.51411C5.63545 5.45686 5.56825 5.41483 5.49361 5.39245C5.41897 5.37007 5.33966 5.36816 5.26402 5.38693C3.7623 5.75991 2.42868 6.62217 1.47497 7.83678C0.521249 9.05138 0.00211197 10.5487 0 12.0909C0 15.8898 3.22298 19 7.04181 19H16.467C17.7503 18.9986 19.0201 18.7394 20.2005 18.2377C21.381 17.736 22.4477 17.0023 23.337 16.0803C24.2263 15.1584 24.9199 14.0672 25.3762 12.872C25.8326 11.6768 26.0423 10.4022 25.9929 9.12432C25.7958 4.05261 21.5663 0 16.4735 0Z" fill="#B5C5CD"/>
</svg>
