<svg width="30" height="22" viewBox="0 0 30 22" fill="none" xmlns="http://www.w3.org/2000/svg">
<path d="M14.3363 7.37287C14.4233 7.46195 14.5268 7.53262 14.6407 7.58084C14.7546 7.62906 14.8767 7.65388 15 7.65388C15.1233 7.65388 15.2454 7.62906 15.3593 7.58084C15.4732 7.53262 15.5767 7.46195 15.6637 7.37287L18.4762 4.5033C18.5634 4.41437 18.6326 4.30879 18.6797 4.19259C18.7269 4.0764 18.7512 3.95186 18.7512 3.82609C18.7512 3.70032 18.7269 3.57578 18.6797 3.45958C18.6326 3.34338 18.5634 3.2378 18.4762 3.14887C18.3891 3.05994 18.2856 2.98939 18.1717 2.94126C18.0578 2.89313 17.9358 2.86836 17.8125 2.86836C17.6892 2.86836 17.5672 2.89313 17.4533 2.94126C17.3394 2.98939 17.2359 3.05994 17.1488 3.14887L15.9375 4.38661V0.956522C15.9375 0.702836 15.8387 0.459541 15.6629 0.280159C15.4871 0.100776 15.2486 0 15 0C14.7514 0 14.5129 0.100776 14.3371 0.280159C14.1613 0.459541 14.0625 0.702836 14.0625 0.956522V4.38661L12.8512 3.14887C12.7641 3.05994 12.6606 2.98939 12.5467 2.94126C12.4328 2.89313 12.3108 2.86836 12.1875 2.86836C12.0642 2.86836 11.9422 2.89313 11.8283 2.94126C11.7144 2.98939 11.6109 3.05994 11.5238 3.14887C11.4366 3.2378 11.3674 3.34338 11.3203 3.45958C11.2731 3.57578 11.2488 3.70032 11.2488 3.82609C11.2488 3.95186 11.2731 4.0764 11.3203 4.19259C11.3674 4.30879 11.4366 4.41437 11.5238 4.5033L14.3363 7.37287ZM4.39313 6.39722C4.56893 6.2179 4.80735 6.11716 5.05594 6.11716C5.30453 6.11716 5.54294 6.2179 5.71875 6.39722L8.37 9.10035C8.54077 9.28075 8.63527 9.52237 8.63313 9.77317C8.631 10.024 8.5324 10.2639 8.35858 10.4412C8.18476 10.6186 7.94962 10.7192 7.70381 10.7213C7.458 10.7235 7.22119 10.6271 7.04437 10.4529L4.39313 7.74783C4.21737 7.56845 4.11864 7.3252 4.11864 7.07157C4.11864 6.81793 4.21737 6.57659 4.39313 6.39722ZM25.6069 6.39722C25.7821 6.57651 25.8804 6.81936 25.8804 7.07252C25.8804 7.32569 25.7821 7.56853 25.6069 7.74783L22.9556 10.4529C22.8691 10.5442 22.7657 10.6171 22.6513 10.6672C22.5369 10.7174 22.4139 10.7437 22.2894 10.7448C22.165 10.746 22.0415 10.7218 21.9263 10.6737C21.8111 10.6256 21.7064 10.5545 21.6184 10.4647C21.5304 10.3749 21.4607 10.2681 21.4136 10.1506C21.3665 10.033 21.3427 9.90706 21.3438 9.78005C21.3449 9.65304 21.3708 9.52753 21.4199 9.41083C21.469 9.29413 21.5405 9.18858 21.63 9.10035L24.2812 6.3953C24.4571 6.21598 24.6955 6.11525 24.9441 6.11525C25.1927 6.11525 25.4311 6.2179 25.6069 6.39722ZM21.9544 20.087C22.4141 18.9254 22.5873 17.6665 22.4588 16.4208C22.3303 15.175 21.904 13.9805 21.2174 12.9421C20.5308 11.9036 19.6048 11.0531 18.5207 10.465C17.4367 9.877 16.2277 9.56948 15 9.56948C13.7723 9.56948 12.5633 9.877 11.4793 10.465C10.3952 11.0531 9.46922 11.9036 8.78259 12.9421C8.09596 13.9805 7.66968 15.175 7.54119 16.4208C7.41269 17.6665 7.58591 18.9254 8.04562 20.087H0.9375C0.68886 20.087 0.450403 20.1877 0.274587 20.3671C0.0987721 20.5465 0 20.7898 0 21.0435C0 21.2972 0.0987721 21.5405 0.274587 21.7198C0.450403 21.8992 0.68886 22 0.9375 22H29.0625C29.3111 22 29.5496 21.8992 29.7254 21.7198C29.9012 21.5405 30 21.2972 30 21.0435C30 20.7898 29.9012 20.5465 29.7254 20.3671C29.5496 20.1877 29.3111 20.087 29.0625 20.087H21.9562H21.9544ZM0 17.2174C0 16.9637 0.0987721 16.7204 0.274587 16.541C0.450403 16.3616 0.68886 16.2609 0.9375 16.2609H4.6875C4.93614 16.2609 5.1746 16.3616 5.35041 16.541C5.52623 16.7204 5.625 16.9637 5.625 17.2174C5.625 17.4711 5.52623 17.7144 5.35041 17.8938C5.1746 18.0731 4.93614 18.1739 4.6875 18.1739H0.9375C0.68886 18.1739 0.450403 18.0731 0.274587 17.8938C0.0987721 17.7144 0 17.4711 0 17.2174ZM24.375 17.2174C24.375 16.9637 24.4738 16.7204 24.6496 16.541C24.8254 16.3616 25.0639 16.2609 25.3125 16.2609H29.0625C29.3111 16.2609 29.5496 16.3616 29.7254 16.541C29.9012 16.7204 30 16.9637 30 17.2174C30 17.4711 29.9012 17.7144 29.7254 17.8938C29.5496 18.0731 29.3111 18.1739 29.0625 18.1739H25.3125C25.0639 18.1739 24.8254 18.0731 24.6496 17.8938C24.4738 17.7144 24.375 17.4711 24.375 17.2174Z" fill="#B5C5CD"/>
</svg>
