<svg width="26" height="26" viewBox="0 0 26 26" fill="none" xmlns="http://www.w3.org/2000/svg">
<path d="M1.66669 24.3333L7.40419 18.5958M7.40419 18.5958C6.4833 17.6749 5.7528 16.5817 5.25442 15.3785C4.75603 14.1753 4.49952 12.8857 4.49952 11.5833C4.49952 10.281 4.75603 8.99141 5.25442 7.7882C5.7528 6.585 6.4833 5.49173 7.40419 4.57084C8.32508 3.64995 9.41835 2.91945 10.6216 2.42107C11.8248 1.92268 13.1143 1.66617 14.4167 1.66617C15.719 1.66617 17.0086 1.92268 18.2118 2.42107C19.415 2.91945 20.5083 3.64995 21.4292 4.57084C23.289 6.43067 24.3339 8.95314 24.3339 11.5833C24.3339 14.2135 23.289 16.736 21.4292 18.5958C19.5694 20.4557 17.0469 21.5005 14.4167 21.5005C11.7865 21.5005 9.26402 20.4557 7.40419 18.5958Z" stroke="#CAD2C5" stroke-width="2" stroke-linecap="round" stroke-linejoin="round"/>
</svg>
