<svg width="17" height="21" viewBox="0 0 17 21" fill="none" xmlns="http://www.w3.org/2000/svg">
<path d="M11.1562 16.8C11.599 16.8 11.9754 16.6467 12.2857 16.3401C12.5959 16.0335 12.7507 15.6618 12.75 15.225C12.75 14.7875 12.5949 14.4155 12.2846 14.1088C11.9744 13.8022 11.5983 13.6493 11.1562 13.65C10.7135 13.65 10.3371 13.8033 10.0268 14.1099C9.71656 14.4165 9.56179 14.7882 9.5625 15.225C9.5625 15.6625 9.71762 16.0345 10.0279 16.3411C10.3381 16.6477 10.7142 16.8007 11.1562 16.8ZM5.79063 16.7475L12.6969 9.9225L11.2094 8.4525L4.30313 15.2775L5.79063 16.7475ZM5.84375 11.55C6.28646 11.55 6.66294 11.3967 6.97319 11.0901C7.28344 10.7835 7.43821 10.4118 7.4375 9.975C7.4375 9.5375 7.28238 9.16545 6.97213 8.85885C6.66188 8.55225 6.28575 8.3993 5.84375 8.4C5.40104 8.4 5.02456 8.5533 4.71431 8.8599C4.40406 9.1665 4.24929 9.5382 4.25 9.975C4.25 10.4125 4.40513 10.7845 4.71538 11.0911C5.02563 11.3977 5.40175 11.5507 5.84375 11.55ZM8.5 21C6.07396 21 4.0506 20.1775 2.42994 18.5325C0.809272 16.8875 -0.000707869 14.84 4.64176e-07 12.39C4.64176e-07 10.64 0.704084 8.7367 2.11225 6.6801C3.52042 4.6235 5.64967 2.3968 8.5 0C11.351 2.3975 13.4806 4.62455 14.8888 6.68115C16.297 8.73775 17.0007 10.6407 17 12.39C17 14.84 16.1897 16.8875 14.569 18.5325C12.9483 20.1775 10.9253 21 8.5 21Z" fill="#B5C5CD"/>
</svg>
