<svg width="82" height="54" viewBox="0 0 82 54" fill="none" xmlns="http://www.w3.org/2000/svg">
<path d="M15.8667 4.53333V1.13333C15.8667 0.832755 15.9861 0.544487 16.1986 0.331946C16.4112 0.119404 16.6994 0 17 0C17.3006 0 17.5888 0.119404 17.8014 0.331946C18.0139 0.544487 18.1333 0.832755 18.1333 1.13333V4.53333C18.1333 4.83391 18.0139 5.12218 17.8014 5.33472C17.5888 5.54726 17.3006 5.66667 17 5.66667C16.6994 5.66667 16.4112 5.54726 16.1986 5.33472C15.9861 5.12218 15.8667 4.83391 15.8667 4.53333ZM26.0667 17C26.0667 18.7932 25.5349 20.5462 24.5387 22.0372C23.5424 23.5282 22.1264 24.6903 20.4697 25.3765C18.8129 26.0627 16.9899 26.2423 15.2312 25.8925C13.4724 25.5426 11.8569 24.6791 10.5889 23.4111C9.3209 22.1431 8.45739 20.5276 8.10755 18.7688C7.75771 17.0101 7.93726 15.1871 8.62349 13.5303C9.30973 11.8736 10.4718 10.4576 11.9628 9.46134C13.4538 8.46508 15.2068 7.93333 17 7.93333C19.4038 7.93596 21.7084 8.89204 23.4082 10.5918C25.108 12.2916 26.064 14.5962 26.0667 17ZM23.8 17C23.8 15.6551 23.4012 14.3404 22.654 13.2221C21.9068 12.1039 20.8448 11.2323 19.6022 10.7176C18.3597 10.2029 16.9925 10.0683 15.6734 10.3307C14.3543 10.593 13.1427 11.2407 12.1917 12.1917C11.2407 13.1427 10.593 14.3543 10.3307 15.6734C10.0683 16.9925 10.2029 18.3597 10.7176 19.6022C11.2323 20.8448 12.1039 21.9068 13.2221 22.654C14.3404 23.4012 15.6551 23.8 17 23.8C18.8029 23.7981 20.5314 23.0811 21.8063 21.8063C23.0811 20.5314 23.7981 18.8029 23.8 17ZM7.1315 8.73517C7.34416 8.94783 7.63259 9.0673 7.93333 9.0673C8.23408 9.0673 8.52251 8.94783 8.73517 8.73517C8.94783 8.52251 9.0673 8.23408 9.0673 7.93333C9.0673 7.63259 8.94783 7.34416 8.73517 7.1315L6.4685 4.86483C6.25584 4.65217 5.96741 4.5327 5.66667 4.5327C5.36592 4.5327 5.07749 4.65217 4.86483 4.86483C4.65217 5.07749 4.5327 5.36592 4.5327 5.66667C4.5327 5.96741 4.65217 6.25584 4.86483 6.4685L7.1315 8.73517ZM7.1315 25.2648L4.86483 27.5315C4.65217 27.7442 4.5327 28.0326 4.5327 28.3333C4.5327 28.6341 4.65217 28.9225 4.86483 29.1352C5.07749 29.3478 5.36592 29.4673 5.66667 29.4673C5.96741 29.4673 6.25584 29.3478 6.4685 29.1352L8.73517 26.8685C8.84047 26.7632 8.92399 26.6382 8.98098 26.5006C9.03797 26.363 9.0673 26.2156 9.0673 26.0667C9.0673 25.9178 9.03797 25.7703 8.98098 25.6327C8.92399 25.4951 8.84047 25.3701 8.73517 25.2648C8.62987 25.1595 8.50486 25.076 8.36728 25.019C8.2297 24.962 8.08225 24.9327 7.93333 24.9327C7.78442 24.9327 7.63696 24.962 7.49938 25.019C7.36181 25.076 7.2368 25.1595 7.1315 25.2648ZM26.0667 9.06667C26.2155 9.06678 26.363 9.03757 26.5006 8.98069C26.6381 8.92381 26.7632 8.84038 26.8685 8.73517L29.1352 6.4685C29.3478 6.25584 29.4673 5.96741 29.4673 5.66667C29.4673 5.36592 29.3478 5.07749 29.1352 4.86483C28.9225 4.65217 28.6341 4.5327 28.3333 4.5327C28.0326 4.5327 27.7442 4.65217 27.5315 4.86483L25.2648 7.1315C25.1062 7.29 24.9981 7.49202 24.9543 7.71199C24.9105 7.93195 24.9329 8.15996 25.0188 8.36716C25.1046 8.57436 25.25 8.75143 25.4366 8.87595C25.6231 9.00047 25.8424 9.06684 26.0667 9.06667ZM26.8685 25.2648C26.6558 25.0522 26.3674 24.9327 26.0667 24.9327C25.7659 24.9327 25.4775 25.0522 25.2648 25.2648C25.0522 25.4775 24.9327 25.7659 24.9327 26.0667C24.9327 26.3674 25.0522 26.6558 25.2648 26.8685L27.5315 29.1352C27.6368 29.2405 27.7618 29.324 27.8994 29.381C28.037 29.438 28.1844 29.4673 28.3333 29.4673C28.4822 29.4673 28.6297 29.438 28.7673 29.381C28.9049 29.324 29.0299 29.2405 29.1352 29.1352C29.2405 29.0299 29.324 28.9049 29.381 28.7673C29.438 28.6297 29.4673 28.4822 29.4673 28.3333C29.4673 28.1844 29.438 28.037 29.381 27.8994C29.324 27.7618 29.2405 27.6368 29.1352 27.5315L26.8685 25.2648ZM5.66667 17C5.66667 16.6994 5.54726 16.4112 5.33472 16.1986C5.12218 15.9861 4.83391 15.8667 4.53333 15.8667H1.13333C0.832755 15.8667 0.544487 15.9861 0.331946 16.1986C0.119404 16.4112 0 16.6994 0 17C0 17.3006 0.119404 17.5888 0.331946 17.8014C0.544487 18.0139 0.832755 18.1333 1.13333 18.1333H4.53333C4.83391 18.1333 5.12218 18.0139 5.33472 17.8014C5.54726 17.5888 5.66667 17.3006 5.66667 17ZM17 28.3333C16.6994 28.3333 16.4112 28.4527 16.1986 28.6653C15.9861 28.8778 15.8667 29.1661 15.8667 29.4667V32.8667C15.8667 33.1672 15.9861 33.4555 16.1986 33.6681C16.4112 33.8806 16.6994 34 17 34C17.3006 34 17.5888 33.8806 17.8014 33.6681C18.0139 33.4555 18.1333 33.1672 18.1333 32.8667V29.4667C18.1333 29.1661 18.0139 28.8778 17.8014 28.6653C17.5888 28.4527 17.3006 28.3333 17 28.3333ZM32.8667 15.8667H29.4667C29.1661 15.8667 28.8778 15.9861 28.6653 16.1986C28.4527 16.4112 28.3333 16.6994 28.3333 17C28.3333 17.3006 28.4527 17.5888 28.6653 17.8014C28.8778 18.0139 29.1661 18.1333 29.4667 18.1333H32.8667C33.1672 18.1333 33.4555 18.0139 33.6681 17.8014C33.8806 17.5888 34 17.3006 34 17C34 16.6994 33.8806 16.4112 33.6681 16.1986C33.4555 15.9861 33.1672 15.8667 32.8667 15.8667Z" fill="#222222"/>
<path d="M69.0814 26.2569C68.1773 21.6752 65.7105 17.5494 62.1024 14.5844C58.4943 11.6193 53.9687 9.99894 49.2986 10C41.52 10 34.7642 14.4141 31.3998 20.8738C27.4438 21.3014 23.7854 23.1757 21.1275 26.1367C18.4695 29.0977 16.9995 32.9365 17 36.9155C17 45.8245 24.2403 53.0647 33.1493 53.0647H68.1394C75.568 53.0647 81.5971 47.0357 81.5971 39.607C81.5971 32.5013 76.0794 26.7414 69.0814 26.2569Z" fill="#D67742"/>
</svg>
