<svg width="27" height="25" viewBox="0 0 27 25" fill="none" xmlns="http://www.w3.org/2000/svg">
<path d="M2.25 7.25H10.375C10.9931 7.25 11.5973 7.06672 12.1112 6.72334C12.6251 6.37996 13.0256 5.89191 13.2621 5.32089C13.4986 4.74987 13.5605 4.12153 13.44 3.51534C13.3194 2.90915 13.0217 2.35233 12.5847 1.91529C12.1477 1.47825 11.5908 1.18063 10.9847 1.06005C10.3785 0.939469 9.75013 1.00135 9.17911 1.23788C8.60809 1.4744 8.12004 1.87494 7.77666 2.38884C7.43328 2.90275 7.25 3.50693 7.25 4.125V4.57125M3.5 14.75H21.625C22.4903 14.75 23.3362 15.0066 24.0556 15.4873C24.7751 15.9681 25.3358 16.6513 25.667 17.4508C25.9981 18.2502 26.0847 19.1299 25.9159 19.9785C25.7471 20.8272 25.3304 21.6067 24.7186 22.2186C24.1067 22.8304 23.3272 23.2471 22.4785 23.4159C21.6299 23.5847 20.7502 23.4981 19.9508 23.167C19.1513 22.8358 18.468 22.2751 17.9873 21.5556C17.5066 20.8362 17.25 19.9903 17.25 19.125V18.5M1 11H21.625C22.4903 11 23.3362 10.7434 24.0556 10.2627C24.7751 9.78195 25.3358 9.09867 25.667 8.29924C25.9981 7.49981 26.0847 6.62015 25.9159 5.77148C25.7471 4.92281 25.3304 4.14326 24.7186 3.53141C24.1067 2.91955 23.3272 2.50288 22.4785 2.33407C21.6299 2.16526 20.7502 2.2519 19.9508 2.58303C19.1513 2.91416 18.468 3.47492 17.9873 4.19438C17.5066 4.91385 17.25 5.75971 17.25 6.625V7.25" stroke="#B5C5CD" stroke-width="1.5" stroke-linecap="round"/>
</svg>
